<svg xmlns="http://www.w3.org/2000/svg" viewBox="0 0 166.2 44">
<g transform="scale(0.44)"><circle cx="50" cy="50" r="50" fill="#00C853"/>
<circle cx="54" cy="46" r="16" stroke="#FFFFFF" stroke-width="11" fill="none"/>
<line x1="38" y1="31" x2="38" y2="77" stroke="#FFFFFF" stroke-width="11" stroke-linecap="round"/></g>
<path d="M57.29150390625 35.6943359375V18.4443359375H61.166015625V20.6005859375H61.30078125Q61.53662109375 20.02783203125 61.991455078125 19.5Q62.4462890625 18.97216796875 63.148193359375 18.629638671875Q63.85009765625 18.287109375 64.849609375 18.287109375Q66.1748046875 18.287109375 67.314697265625 18.977783203125Q68.45458984375 19.66845703125 69.156494140625 21.100341796875Q69.8583984375 22.5322265625 69.8583984375 24.7333984375Q69.8583984375 26.8671875 69.1845703125 28.299072265625Q68.5107421875 29.73095703125 67.365234375 30.455322265625Q66.2197265625 31.1796875 64.8271484375 31.1796875Q63.87255859375 31.1796875 63.170654296875 30.859619140625Q62.46875 30.53955078125 62.00830078125 30.0341796875Q61.5478515625 29.52880859375 61.30078125 28.96728515625H61.2109375V35.6943359375ZM63.49072265625 28.125Q64.2431640625 28.125 64.765380859375 27.703857421875Q65.28759765625 27.28271484375 65.55712890625 26.513427734375Q65.82666015625 25.744140625 65.82666015625 24.7333984375Q65.82666015625 23.71142578125 65.55712890625 22.953369140625Q65.28759765625 22.1953125 64.77099609375 21.774169921875Q64.25439453125 21.35302734375 63.49072265625 21.35302734375Q62.73828125 21.35302734375 62.21044921875 21.762939453125Q61.6826171875 22.1728515625 61.40185546875 22.930908203125Q61.12109375 23.68896484375 61.12109375 24.7333984375Q61.12109375 25.75537109375 61.40185546875 26.51904296875Q61.6826171875 27.28271484375 62.216064453125 27.703857421875Q62.74951171875 28.125 63.49072265625 28.125Z M77.32710937499999 31.23583984375Q75.36177734374999 31.23583984375 73.94673828124999 30.421630859375Q72.53169921874999 29.607421875 71.77364257812499 28.153076171875Q71.01558593749999 26.69873046875 71.01558593749999 24.76708984375Q71.01558593749999 22.82421875 71.77364257812499 21.369873046875Q72.53169921874999 19.91552734375 73.94673828124999 19.101318359375Q75.36177734374999 18.287109375 77.32710937499999 18.287109375Q79.29244140624999 18.287109375 80.70748046874999 19.101318359375Q82.12251953124999 19.91552734375 82.87496093749999 21.369873046875Q83.62740234374999 22.82421875 83.62740234374999 24.76708984375Q83.62740234374999 26.69873046875 82.87496093749999 28.153076171875Q82.12251953124999 29.607421875 80.70748046874999 30.421630859375Q79.29244140624999 31.23583984375 77.32710937499999 31.23583984375ZM77.32710937499999 28.2373046875Q78.07955078124999 28.2373046875 78.59615234374999 27.79931640625Q79.11275390624999 27.361328125 79.37666992187499 26.5751953125Q79.64058593749999 25.7890625 79.64058593749999 24.74462890625Q79.64058593749999 23.7001953125 79.37666992187499 22.919677734375Q79.11275390624999 22.13916015625 78.59615234374999 21.71240234375Q78.07955078124999 21.28564453125 77.32710937499999 21.28564453125Q76.57466796874999 21.28564453125 76.05806640624999 21.71240234375Q75.54146484374999 22.13916015625 75.27754882812499 22.919677734375Q75.01363281249999 23.7001953125 75.01363281249999 24.74462890625Q75.01363281249999 25.7890625 75.27754882812499 26.5751953125Q75.54146484374999 27.361328125 76.05806640624999 27.79931640625Q76.57466796874999 28.2373046875 77.32710937499999 28.2373046875Z M85.27873046874998 35.6943359375V18.4443359375H89.15324218749998V20.6005859375H89.28800781249998Q89.52384765624998 20.02783203125 89.97868164062498 19.5Q90.43351562499998 18.97216796875 91.13541992187498 18.629638671875Q91.83732421874998 18.287109375 92.83683593749998 18.287109375Q94.16203124999998 18.287109375 95.30192382812498 18.977783203125Q96.44181640624998 19.66845703125 97.14372070312498 21.100341796875Q97.84562499999998 22.5322265625 97.84562499999998 24.7333984375Q97.84562499999998 26.8671875 97.17179687499998 28.299072265625Q96.49796874999998 29.73095703125 95.35246093749998 30.455322265625Q94.20695312499998 31.1796875 92.81437499999998 31.1796875Q91.85978515624998 31.1796875 91.15788085937498 30.859619140625Q90.45597656249998 30.53955078125 89.99552734374998 30.0341796875Q89.53507812499998 29.52880859375 89.28800781249998 28.96728515625H89.19816406249998V35.6943359375ZM91.47794921874998 28.125Q92.23039062499998 28.125 92.75260742187498 27.703857421875Q93.27482421874998 27.28271484375 93.54435546874998 26.513427734375Q93.81388671874998 25.744140625 93.81388671874998 24.7333984375Q93.81388671874998 23.71142578125 93.54435546874998 22.953369140625Q93.27482421874998 22.1953125 92.75822265624998 21.774169921875Q92.24162109374998 21.35302734375 91.47794921874998 21.35302734375Q90.72550781249998 21.35302734375 90.19767578124998 21.762939453125Q89.66984374999998 22.1728515625 89.38908203124998 22.930908203125Q89.10832031249998 23.68896484375 89.10832031249998 24.7333984375Q89.10832031249998 25.75537109375 89.38908203124998 26.51904296875Q89.66984374999998 27.28271484375 90.20329101562498 27.703857421875Q90.73673828124998 28.125 91.47794921874998 28.125Z M105.31433593749998 31.23583984375Q103.34900390624998 31.23583984375 101.93396484374998 30.421630859375Q100.51892578124998 29.607421875 99.76086914062498 28.153076171875Q99.00281249999998 26.69873046875 99.00281249999998 24.76708984375Q99.00281249999998 22.82421875 99.76086914062498 21.369873046875Q100.51892578124998 19.91552734375 101.93396484374998 19.101318359375Q103.34900390624998 18.287109375 105.31433593749998 18.287109375Q107.27966796874998 18.287109375 108.69470703124998 19.101318359375Q110.10974609374998 19.91552734375 110.86218749999998 21.369873046875Q111.61462890624998 22.82421875 111.61462890624998 24.76708984375Q111.61462890624998 26.69873046875 110.86218749999998 28.153076171875Q110.10974609374998 29.607421875 108.69470703124998 30.421630859375Q107.27966796874998 31.23583984375 105.31433593749998 31.23583984375ZM105.31433593749998 28.2373046875Q106.06677734374998 28.2373046875 106.58337890624998 27.79931640625Q107.09998046874998 27.361328125 107.36389648437498 26.5751953125Q107.62781249999998 25.7890625 107.62781249999998 24.74462890625Q107.62781249999998 23.7001953125 107.36389648437498 22.919677734375Q107.09998046874998 22.13916015625 106.58337890624998 21.71240234375Q106.06677734374998 21.28564453125 105.31433593749998 21.28564453125Q104.56189453124998 21.28564453125 104.04529296874998 21.71240234375Q103.52869140624998 22.13916015625 103.26477539062498 22.919677734375Q103.00085937499998 23.7001953125 103.00085937499998 24.74462890625Q103.00085937499998 25.7890625 103.26477539062498 26.5751953125Q103.52869140624998 27.361328125 104.04529296874998 27.79931640625Q104.56189453124998 28.2373046875 105.31433593749998 28.2373046875Z M113.26595703124997 18.4443359375H117.18539062499997V31.5390625Q117.18539062499997 33.07763671875 116.56209960937497 33.9873046875Q115.93880859374997 34.89697265625 114.79330078124997 35.295654296875Q113.64779296874997 35.6943359375 112.10921874999997 35.6943359375H111.31185546874997V32.71826171875H111.78353515624997Q112.62582031249997 32.71826171875 112.94588867187497 32.409423828125Q113.26595703124997 32.1005859375 113.26595703124997 31.4716796875ZM115.23128906249997 16.97314453125Q114.40023437499997 16.97314453125 113.80501953124997 16.417236328125Q113.20980468749997 15.861328125 113.20980468749997 15.08642578125Q113.20980468749997 14.30029296875 113.80501953124997 13.75Q114.40023437499997 13.19970703125 115.23128906249997 13.19970703125Q116.07357421874997 13.19970703125 116.66878906249997 13.744384765625Q117.26400390624997 14.2890625 117.26400390624997 15.08642578125Q117.26400390624997 15.87255859375 116.66878906249997 16.4228515625Q116.07357421874997 16.97314453125 115.23128906249997 16.97314453125Z M125.17070312499997 31.23583984375Q123.20537109374997 31.23583984375 121.77910156249997 30.455322265625Q120.35283203124997 29.6748046875 119.59477539062497 28.22607421875Q118.83671874999997 26.77734375 118.83671874999997 24.76708984375Q118.83671874999997 22.83544921875 119.59477539062497 21.37548828125Q120.35283203124997 19.91552734375 121.74541015624997 19.101318359375Q123.13798828124997 18.287109375 125.02470703124997 18.287109375Q126.34990234374997 18.287109375 127.45610351562499 18.70263671875Q128.5623046875 19.1181640625 129.376513671875 19.932373046875Q130.19072265625 20.74658203125 130.634326171875 21.93701171875Q131.0779296875 23.12744140625 131.0779296875 24.6884765625V25.6767578125H122.68876953124997Q122.72246093749997 26.51904296875 123.01445312499997 27.10302734375Q123.32890624999997 27.75439453125 123.90166015624997 28.074462890625Q124.47441406249997 28.39453125 125.23808593749997 28.39453125Q125.76591796874997 28.39453125 126.19829101562497 28.24853515625Q126.63066406249997 28.1025390625 126.93950195312497 27.810546875Q127.24833984374997 27.5185546875 127.40556640624997 27.10302734375L130.8982421875 27.67578125Q130.5837890625 28.75390625 129.814501953125 29.556884765625Q129.04521484375 30.35986328125 127.87163085937499 30.7978515625Q126.69804687499997 31.23583984375 125.17070312499997 31.23583984375ZM122.71123046874997 23.39697265625H127.36064453124997Q127.29326171874997 22.85791015625 127.12480468749997 22.43115234375Q126.85527343749997 21.80224609375 126.33867187499997 21.46533203125Q125.82207031249997 21.12841796875 125.05839843749997 21.12841796875Q124.29472656249997 21.12841796875 123.76689453124997 21.470947265625Q123.23906249999997 21.8134765625 122.96953124999997 22.419921875Q122.76738281249997 22.85791015625 122.71123046874997 23.39697265625Z M137.22144531249998 31.1796875Q135.82886718749998 31.1796875 134.68335937499998 30.455322265625Q133.53785156249998 29.73095703125 132.86402343749998 28.299072265625Q132.19019531249998 26.8671875 132.19019531249998 24.7333984375Q132.19019531249998 22.5322265625 132.89209960937498 21.100341796875Q133.59400390624998 19.66845703125 134.73389648437498 18.977783203125Q135.87378906249998 18.287109375 137.18775390624998 18.287109375Q138.18726562499998 18.287109375 138.89478515624998 18.629638671875Q139.60230468749998 18.97216796875 140.05713867187498 19.5Q140.51197265624998 20.02783203125 140.74781249999998 20.6005859375H140.83765624999998V14.2666015625H144.74585937499998V31.0H140.88257812499998V28.96728515625H140.74781249999998Q140.50074218749998 29.52880859375 140.03467773437498 30.0341796875Q139.56861328124998 30.53955078125 138.87793945312498 30.859619140625Q138.18726562499998 31.1796875 137.22144531249998 31.1796875ZM138.55787109374998 28.125Q139.29908203124998 28.125 139.83252929687498 27.703857421875Q140.36597656249998 27.28271484375 140.64673828124998 26.51904296875Q140.92749999999998 25.75537109375 140.92749999999998 24.7333984375Q140.92749999999998 23.68896484375 140.64673828124998 22.930908203125Q140.36597656249998 22.1728515625 139.83252929687498 21.762939453125Q139.29908203124998 21.35302734375 138.55787109374998 21.35302734375Q137.80542968749998 21.35302734375 137.28321289062498 21.774169921875Q136.76099609374998 22.1953125 136.49146484374998 22.953369140625Q136.22193359374998 23.71142578125 136.22193359374998 24.7333984375Q136.22193359374998 25.744140625 136.49146484374998 26.513427734375Q136.76099609374998 27.28271484375 137.28321289062498 27.703857421875Q137.80542968749998 28.125 138.55787109374998 28.125Z M151.23751953124997 31.1572265625Q149.92355468749997 31.1572265625 148.94088867187497 30.5732421875Q147.95822265624997 29.9892578125 147.41916015624997 28.92236328125Q146.88009765624997 27.85546875 146.88009765624997 26.4404296875V18.4443359375H150.79953124999997V25.6767578125Q150.79953124999997 26.732421875 151.34420898437497 27.333251953125Q151.88888671874997 27.93408203125 152.84347656249997 27.93408203125Q153.49484374999997 27.93408203125 153.97213867187497 27.658935546875Q154.44943359374997 27.3837890625 154.71896484374997 26.861572265625Q154.98849609374997 26.33935546875 154.98849609374997 25.609375V18.4443359375H158.90792968749997V31.0H155.22433593749997L155.16818359374997 28.2822265625Q154.69650390624997 29.48388671875 153.86544921874997 30.24755859375Q152.87716796874997 31.1572265625 151.23751953124997 31.1572265625Z" fill="#0A1F3F"/>
</svg>